<?xml version="1.0" encoding="UTF-8" standalone="no"?>
<svg width="2962" height="2962" viewBox="0 0 2962 2962" fill="none" xmlns="http://www.w3.org/2000/svg">
<g clip-path="url(#clip0_206_17)">
<path d="M1481 2887C2257.51 2887 2887 2257.51 2887 1481C2887 704.488 2257.51 75 1481 75C704.488 75 75 704.488 75 1481C75 2257.51 704.488 2887 1481 2887Z" stroke="#999999" stroke-width="150"/>
<path d="M2132.11 563.616C2127.51 565.054 1733.2 761.59 1255.74 1000.43C458.204 1399.25 387.139 1434.94 380.521 1441.55C372.178 1449.75 367.431 1458.39 363.834 1471.91C361.389 1481.12 361.389 1481.98 363.834 1491.19C367.287 1504.57 372.466 1514.07 380.521 1521.84C386.563 1527.74 485.537 1577.52 1256.75 1963.11C1802.11 2235.75 2129.53 2398.77 2135.28 2400.35C2143.05 2402.36 2145.35 2402.51 2152.97 2400.93C2178.72 2395.46 2194.26 2380.49 2201.17 2354.45C2203.61 2345.24 2203.61 2344.38 2201.17 2335.17C2199.87 2329.99 2197.43 2323.09 2195.7 2319.92C2194.12 2316.76 2068.53 2127.7 1916.47 1899.66C1733.06 1624.71 1639.98 1484 1639.98 1481.55C1639.98 1479.11 1733.06 1338.39 1916.47 1063.44C2068.53 835.399 2194.12 646.345 2195.7 643.18C2197.43 640.014 2199.87 633.108 2201.17 627.929C2203.61 618.721 2203.61 617.857 2201.17 608.649C2194.55 583.758 2181.31 570.09 2156.86 563.04C2146.93 560.163 2142.9 560.307 2132.11 563.616Z" fill="white" stroke="#999999" stroke-width="133.333"/>
</g>
<defs>
<clipPath id="clip0_206_17">
<rect width="2962" height="2962" fill="white"/>
</clipPath>
</defs>
</svg>